<svg id="Capa_1" data-name="Capa 1" xmlns="http://www.w3.org/2000/svg" viewBox="0 0 50 50"><title>icon-calendar</title><g id="_5" data-name="5"><path d="M11.06,31.2h3.1a3.09,3.09,0,0,0,3.09-3.1V25a3.09,3.09,0,0,0-3.09-3.1h-3.1A3.1,3.1,0,0,0,8,25v3.1A3.1,3.1,0,0,0,11.06,31.2Zm0-6.2h3.1v3.1h-3.1ZM35.84,43.59h3.1a3.1,3.1,0,0,0,3.1-3.1v-3.1a3.09,3.09,0,0,0-3.1-3.09h-3.1a3.09,3.09,0,0,0-3.09,3.09v3.1A3.09,3.09,0,0,0,35.84,43.59Zm0-6.2h3.1v3.1h-3.1Zm0-6.19h3.1A3.1,3.1,0,0,0,42,28.1V25a3.1,3.1,0,0,0-3.1-3.1h-3.1A3.09,3.09,0,0,0,32.75,25v3.1A3.09,3.09,0,0,0,35.84,31.2Zm0-6.2h3.1v3.1h-3.1ZM42,3.31h-6.2V1.76a1.55,1.55,0,1,0-3.09,0V3.31H17.25V1.76a1.55,1.55,0,1,0-3.09,0V3.31H8a6.21,6.21,0,0,0-6.2,6.2V43.59A6.21,6.21,0,0,0,8,49.79H42a6.21,6.21,0,0,0,6.2-6.2V9.51A6.21,6.21,0,0,0,42,3.31Zm3.1,40.28a3.1,3.1,0,0,1-3.1,3.1H8a3.1,3.1,0,0,1-3.1-3.1V15.7H45.14V43.59Zm0-31H4.86V9.51A3.1,3.1,0,0,1,8,6.41h6.2V8a1.55,1.55,0,1,0,3.09,0V6.41h15.5V8a1.55,1.55,0,1,0,3.09,0V6.41H42a3.1,3.1,0,0,1,3.1,3.1Zm-21.69,31h3.1a3.1,3.1,0,0,0,3.1-3.1v-3.1a3.09,3.09,0,0,0-3.1-3.09h-3.1a3.09,3.09,0,0,0-3.1,3.09v3.1A3.1,3.1,0,0,0,23.45,43.59Zm0-6.2h3.1v3.1h-3.1Zm0-6.19h3.1a3.1,3.1,0,0,0,3.1-3.1V25a3.1,3.1,0,0,0-3.1-3.1h-3.1a3.1,3.1,0,0,0-3.1,3.1v3.1A3.1,3.1,0,0,0,23.45,31.2Zm0-6.2h3.1v3.1h-3.1ZM11.06,43.59h3.1a3.09,3.09,0,0,0,3.09-3.1v-3.1a3.09,3.09,0,0,0-3.09-3.09h-3.1A3.09,3.09,0,0,0,8,37.39v3.1A3.1,3.1,0,0,0,11.06,43.59Zm0-6.2h3.1v3.1h-3.1Z"/></g></svg>