<svg id="Capa_1" data-name="Capa 1" xmlns="http://www.w3.org/2000/svg" viewBox="0 0 50 50"><title>icon-motorbike</title><g id="layer1"><path id="path3960" d="M26,36.51a3.6,3.6,0,0,0,2.26-.8h3.87a8.13,8.13,0,0,0,2.24,2.57H12.79A8,8,0,0,0,13.85,26.4a.78.78,0,0,0-1.12,0,.81.81,0,0,0,0,1.14,6.41,6.41,0,1,1-4.68-2,.8.8,0,0,0,0-1.6,8,8,0,1,0,0,16H49a.8.8,0,1,0,0-1.59H44a8,8,0,0,0,3.23-6.41A7.6,7.6,0,0,0,47,30l2.44-.66a.8.8,0,0,0,.55-1,11.35,11.35,0,0,0-9.43-7.67,3.22,3.22,0,0,0-.89-1.19,3.63,3.63,0,0,0-2.82-.76,38.19,38.19,0,0,1-5.19.3,16.9,16.9,0,0,0-2.92.24,5.78,5.78,0,0,0-2.49.93,3.06,3.06,0,0,0-1-.45,14.47,14.47,0,0,1-3.4-1.52,10.1,10.1,0,0,0-3.92-1.39.8.8,0,0,0-.17,1.6,8.64,8.64,0,0,1,3.33,1.19,15,15,0,0,0,3.77,1.67,1.35,1.35,0,0,1,1.05,1.23.9.9,0,0,1-.88.94H19.25a.82.82,0,0,0-.81.8.8.8,0,0,0,.81.8H25a2.41,2.41,0,0,0,1.52-.54A2.36,2.36,0,0,0,28,25h8.45l1.41,5.36a2,2,0,0,0-.7,1.51,2,2,0,1,0,2.24-2L38.14,25a2.75,2.75,0,0,0,2.69-2.73A9.72,9.72,0,0,1,47.92,28l-1.49.39a8,8,0,0,0-4.55-4.11.8.8,0,0,0-1,.48.79.79,0,0,0,.48,1,6.48,6.48,0,0,1,3.89,3.86,6.55,6.55,0,0,1,.38,2.19,6.41,6.41,0,1,1-11.07-4.41.8.8,0,0,0-1.16-1.1,8,8,0,0,0-2.19,5.51,7.88,7.88,0,0,0,.32,2.24H29.43a3.44,3.44,0,0,0,.21-1.2A3.61,3.61,0,0,0,26,29.32l-5.16.39a3.11,3.11,0,0,0-1.89.63l-2.25-8.4a1.91,1.91,0,0,0-1.85-1.42h-.78L17.43,13l1.7.45-.21.77a.8.8,0,0,0,.57,1l3.86,1a2.4,2.4,0,0,0,2.95-1.73,2.45,2.45,0,0,0-1.71-2.91l-3.86-1a.79.79,0,0,0-1,.56l-.21.78-1.45-.39.11-.24a.81.81,0,0,0-.4-1.06.84.84,0,0,0-.35-.07.8.8,0,0,0-.71.48l-3.41,7.66-1.65.31a8.94,8.94,0,0,0,0-5.05l1.82.35a.81.81,0,0,0,.94-.64.8.8,0,0,0-.64-.93l-4.22-.8a1.74,1.74,0,0,0-1.88,1.37,11.07,11.07,0,0,0,0,6.35,1.81,1.81,0,0,0,2.06,1.33L12.54,20c-1.46,3.29-2.95,6.57-4.43,9.86a2,2,0,1,0,1.94,2,2,2,0,0,0-.46-1.27l3.78-8.5h1.49a.3.3,0,0,1,.3.23l2.6,9.71a3.41,3.41,0,0,0-.11.85,3.21,3.21,0,0,0,3.2,3.2ZM21.09,12.29l3.09.83a.8.8,0,0,1,.56,1,.78.78,0,0,1-1,.54l-3.08-.83Zm-11.22.89a7.39,7.39,0,0,1,0,5.73c-.1.25-.48.2-.62-.17a9.68,9.68,0,0,1,0-5.39c.1-.37.49-.48.64-.17Zm28.74,7.45a1.79,1.79,0,0,1,.62,1.44c0,.82-.33,1.32-.94,1.32H28a.78.78,0,0,1-.63-.31,2.34,2.34,0,0,0-.15-1.73A5.52,5.52,0,0,1,29,20.76a16,16,0,0,1,2.65-.21A39.83,39.83,0,0,0,37,20.24a2.13,2.13,0,0,1,1.58.39ZM20.44,26.12a.8.8,0,0,0,0,1.6H22a.82.82,0,0,0,.81-.8.79.79,0,0,0-.81-.8Zm4.4,0a.8.8,0,0,0-.8.8.82.82,0,0,0,.8.8h5.6a.8.8,0,1,0,0-1.6ZM3.07,31.9a5,5,0,1,0,9.47-2.16.8.8,0,1,0-1.44.69,3.41,3.41,0,0,1,.33,1.47,3.38,3.38,0,1,1-4-3.33A.8.8,0,0,0,7.26,27,5,5,0,0,0,3.07,31.9Zm37.55-4A.8.8,0,0,0,40.9,29a3.38,3.38,0,1,1-5.08,2.92,3.32,3.32,0,0,1,.27-1.35.8.8,0,0,0-1.47-.64,5.05,5.05,0,0,0-.4,2,5,5,0,1,0,7.49-4.3.81.81,0,0,0-1.09.28ZM20.85,34.51a1.59,1.59,0,0,1-1.6-1.6,1.61,1.61,0,0,1,1.6-1.6l5.2-.39a2,2,0,0,1,2,2,1.85,1.85,0,0,1-2,2Z"/></g></svg>