<?xml version="1.0" encoding="utf-8"?>
<!-- Generator: Adobe Illustrator 24.0.2, SVG Export Plug-In . SVG Version: 6.00 Build 0)  -->
<svg version="1.1" id="Capa_1" xmlns="http://www.w3.org/2000/svg" xmlns:xlink="http://www.w3.org/1999/xlink" x="0px" y="0px"
	 viewBox="0 0 50 50" style="enable-background:new 0 0 50 50;" xml:space="preserve">
<g>
	<path id="WhatsApp" d="M50,24.4c0,13.5-11,24.4-24.5,24.4c-4.3,0-8.3-1.1-11.9-3L0,50l4.4-13.1c-2.2-3.7-3.5-8-3.5-12.6
		C0.9,10.9,11.9,0,25.5,0C39,0,50,10.9,50,24.4z M25.5,3.9c-11.4,0-20.6,9.2-20.6,20.5c0,4.5,1.5,8.6,3.9,12L6.2,44l7.9-2.5
		c3.3,2.1,7.2,3.4,11.4,3.4c11.4,0,20.6-9.2,20.6-20.5S36.8,3.9,25.5,3.9z M37.8,30c-0.2-0.2-0.6-0.4-1.2-0.7
		c-0.6-0.3-3.6-1.7-4.1-1.9c-0.6-0.2-1-0.3-1.4,0.3c-0.4,0.6-1.6,1.9-1.9,2.3c-0.4,0.4-0.7,0.4-1.3,0.2c-0.6-0.3-2.5-0.9-4.8-3
		c-1.8-1.6-3-3.5-3.3-4.1c-0.4-0.6,0-0.9,0.3-1.2c0.3-0.3,0.6-0.7,0.9-1c0.3-0.3,0.4-0.6,0.6-1c0.2-0.4,0.1-0.7-0.1-1
		c-0.1-0.3-1.4-3.2-1.9-4.4c-0.5-1.2-1-1-1.4-1c-0.4,0-0.8-0.1-1.2-0.1c-0.4,0-1.1,0.1-1.6,0.7c-0.6,0.6-2.1,2-2.1,5
		c0,2.9,2.2,5.8,2.5,6.2c0.3,0.4,4.2,6.6,10.3,9c6.1,2.4,6.1,1.6,7.2,1.5c1.1-0.1,3.6-1.4,4.1-2.8C38,31.4,38,30.2,37.8,30z"/>
</g>
</svg>
