<svg id="Capa_1" data-name="Capa 1" xmlns="http://www.w3.org/2000/svg" viewBox="0 0 50 50"><title>icon-house</title><g id="layer1"><path id="path21754" d="M43.58,37.43a2.8,2.8,0,0,0-2-.89,2.75,2.75,0,0,0-2,.9,3.57,3.57,0,0,0-2.7-.15,3.09,3.09,0,0,0-2,2.39,3,3,0,0,0-1.65,2.49,2.84,2.84,0,0,0,.67,2,2.7,2.7,0,0,0,1.38.83v2.47H32.13v-.79a2.39,2.39,0,0,0-1.59-2.24V26.13A1.6,1.6,0,0,0,29,24.54h-7.9a1.6,1.6,0,0,0-1.59,1.59V44.44a2.38,2.38,0,0,0-1.58,2.24v.79H14.71V45a2.7,2.7,0,0,0,1.38-.83,2.84,2.84,0,0,0,.67-2,3,3,0,0,0-1.65-2.49,3.09,3.09,0,0,0-2-2.39,3.57,3.57,0,0,0-2.7.15,2.75,2.75,0,0,0-2-.9,2.76,2.76,0,0,0-2,.89L6,37.26V20.16l19-11,19,11V34.81a.8.8,0,0,0,1.59,0V21.06A1.88,1.88,0,0,0,48,20.3l.9-1.55a1.89,1.89,0,0,0-.69-2.56l-7.47-4.31V5.38A1.6,1.6,0,0,0,41.62,4V2.53A1.6,1.6,0,0,0,40,1H33.71a1.59,1.59,0,0,0-1.58,1.58V4a1.59,1.59,0,0,0,.78,1.37v2L26.09,3.42a2.18,2.18,0,0,0-2.18,0L1.8,16.19a1.89,1.89,0,0,0-.69,2.56L2,20.3a1.88,1.88,0,0,0,2.41.76V37.12a3.85,3.85,0,0,0-.73.17,3.09,3.09,0,0,0-2,2.38A3,3,0,0,0,0,42.17a2.81,2.81,0,0,0,.68,2A2.63,2.63,0,0,0,2.05,45v2.47H1.26a.79.79,0,1,0,0,1.58H48.74a.79.79,0,0,0,.8-.78.8.8,0,0,0-.8-.8H48V45a2.63,2.63,0,0,0,1.37-.83,2.81,2.81,0,0,0,.68-2,3,3,0,0,0-1.66-2.5,3.09,3.09,0,0,0-2-2.38,3.64,3.64,0,0,0-2.73.14ZM40,2.53V4H33.71V2.53ZM25,4.72a.52.52,0,0,1,.3.08L47.41,17.56a.27.27,0,0,1,.1.4l-.89,1.55a.27.27,0,0,1-.4.1L25.4,7.59a.81.81,0,0,0-.8,0l-20.82,12a.28.28,0,0,1-.4-.1L2.49,18a.27.27,0,0,1,.1-.4L24.7,4.8a.54.54,0,0,1,.3-.08Zm9.5.82h4.65V11L34.5,8.28ZM25,11.09a.7.7,0,0,0-.4.1l-5.43,3.14a.8.8,0,0,0-.3,1.08A.79.79,0,0,0,20,15.7L25,12.79l5.05,2.91a.79.79,0,0,0,1.08-.29.8.8,0,0,0-.3-1.08L25.4,11.19A.7.7,0,0,0,25,11.09ZM25,15a4,4,0,1,0,4,4A4,4,0,0,0,25,15Zm-.06,1.58H25a2.35,2.35,0,1,1-.06,0ZM8.38,21.37a.79.79,0,1,0,0,1.58h7.91a.8.8,0,0,0,.8-.79.79.79,0,0,0-.8-.79Zm25.31,0a.79.79,0,0,0-.79.79.8.8,0,0,0,.79.79H41.6a.79.79,0,1,0,0-1.58ZM7.59,24.53a.79.79,0,0,0-.2,1.56v7.17a.79.79,0,0,0,.2,1.56h9.5a.79.79,0,0,0,.2-1.56V26.09a.81.81,0,0,0,.59-.77.8.8,0,0,0-.79-.79Zm25.31,0a.79.79,0,0,0-.2,1.56v7.17a.79.79,0,0,0,.2,1.56h9.5a.8.8,0,0,0,.79-.79.79.79,0,0,0-.59-.77V26.09a.8.8,0,0,0,.59-.77.79.79,0,0,0-.79-.79ZM9,26.11h2.56v2.77H9Zm4.15,0H15.7v2.77H13.13Zm21.16,0h2.57v2.77H34.29Zm4.15,0H41v2.77H38.44Zm-9.48,0V44.3H21V26.13ZM9,30.46h2.56v2.77H9Zm4.15,0H15.7v2.77H13.13Zm21.16,0h2.57v2.77H34.29Zm4.15,0H41v2.77H38.44ZM27.38,36.39a.79.79,0,0,0-.8.79V38a.8.8,0,1,0,1.59,0v-.79A.8.8,0,0,0,27.38,36.39Zm-17,3.93a.78.78,0,0,0,.78-.79,3.74,3.74,0,0,0-.06-.68,2.05,2.05,0,0,1,1.46-.07,1.46,1.46,0,0,1,.79.57.8.8,0,0,0-.56.76.79.79,0,0,0,.79.79c1.19,0,1.57.67,1.6,1.35a1.3,1.3,0,0,1-.29.88,1.16,1.16,0,0,1-1,.39.78.78,0,0,0-.79.78v3.17H3.63V45.1h7.13a.79.79,0,0,0,0-1.58H2.84a1.18,1.18,0,0,1-1-.39,1.25,1.25,0,0,1-.29-.88c0-.68.4-1.35,1.6-1.35A.79.79,0,0,0,4,40.11a.77.77,0,0,0-.55-.76,1.44,1.44,0,0,1,.79-.56,2.07,2.07,0,0,1,1.49.06,3.23,3.23,0,0,0-.07.71.79.79,0,0,0,1.57,0c0-1.13.6-1.43,1.2-1.43s1.18.29,1.18,1.4a.79.79,0,0,0,.8.79Zm26.49,4a.78.78,0,0,0-.79-.78,1.16,1.16,0,0,1-1-.39,1.3,1.3,0,0,1-.29-.88c0-.68.41-1.35,1.6-1.35a.79.79,0,0,0,.79-.79.8.8,0,0,0-.56-.76,1.46,1.46,0,0,1,.79-.57,2,2,0,0,1,1.46.07,3.74,3.74,0,0,0-.06.68.79.79,0,0,0,1.58,0c0-1.08.55-1.39,1.16-1.4s1.22.3,1.22,1.43a.79.79,0,0,0,1.58,0c0-.25-.31-.72-.08-.72a2.18,2.18,0,0,1,1.49-.06,1.47,1.47,0,0,1,.79.57.8.8,0,0,0-.55.76.79.79,0,0,0,.79.79c1.2,0,1.57.67,1.6,1.35a1.21,1.21,0,0,1-.29.88,1.16,1.16,0,0,1-1,.38H39.24a.8.8,0,0,0,0,1.59h7.13v2.37h-9.5Zm-7.12,1.59a.77.77,0,0,1,.79.79v.79H19.46v-.79a.77.77,0,0,1,.79-.79Z"/></g></svg>