<svg id="Capa_1" data-name="Capa 1" xmlns="http://www.w3.org/2000/svg" viewBox="0 0 50 50"><title>icon-whatsapp</title><path d="M45.81,6.07l-.88.13A6.5,6.5,0,0,1,42.26,6,8.21,8.21,0,0,0,36,6.87L11.46,21,3.93,17.31a.84.84,0,0,0-.77,0L.33,19A.81.81,0,0,0,0,20.08L6.16,30.69a.81.81,0,0,0,.88.39l15.89-3.52a.65.65,0,0,0,.23-.09l2.12-1.22L31,36.15a.81.81,0,0,0,.7.41.87.87,0,0,0,.41-.11l5-2.86a.81.81,0,0,0,.39-.87L35,20.65,48.21,13a3.74,3.74,0,0,0-2.4-6.94ZM3.6,19l6.16,3-5,2.91L1.85,20Zm44.77-8.65a2.07,2.07,0,0,1-1,1.28L33.66,19.53a.81.81,0,0,0-.4.87l2.47,12.07L32,34.63l-5.71-9.9a.8.8,0,0,0-.5-.38.76.76,0,0,0-.21,0,.74.74,0,0,0-.41.11L22.45,26,7.27,29.35l-1.74-3,6.36-3.68L36.8,8.28a6.56,6.56,0,0,1,4.58-.76l-1.8,1L40.4,10l3.54-2.05,0,0a8.73,8.73,0,0,0,1.25-.07L46,7.69a2.1,2.1,0,0,1,2.33,2.63Z"/><rect x="0.83" y="42.61" width="48.99" height="1.63"/><rect x="36.35" y="10.09" width="1.63" height="1.63" transform="translate(-0.47 20.04) rotate(-29.99)"/><rect x="33.52" y="11.72" width="1.63" height="1.63" transform="translate(-1.67 18.84) rotate(-29.99)"/><rect x="30.69" y="13.35" width="1.63" height="1.63" transform="translate(-2.86 17.65) rotate(-29.99)"/><rect x="27.86" y="14.99" width="1.63" height="1.63" transform="translate(-4.06 16.45) rotate(-29.99)"/><rect x="25.03" y="16.62" width="1.63" height="1.63" transform="translate(-5.25 15.26) rotate(-29.99)"/><rect x="22.2" y="18.25" width="1.63" height="1.63" transform="translate(-6.45 14.06) rotate(-29.99)"/><rect x="19.37" y="19.89" width="1.63" height="1.63" transform="translate(-7.65 12.87) rotate(-29.99)"/><rect x="16.54" y="21.52" width="1.63" height="1.63" transform="translate(-8.84 11.67) rotate(-29.99)"/><rect x="13.72" y="23.15" width="1.63" height="1.63" transform="translate(-10.04 10.47) rotate(-29.99)"/></svg>